<svg width="256" height="256" viewBox="0 0 256 256" fill="none" xmlns="http://www.w3.org/2000/svg">
<path d="M0 0H256V256H0V0Z" fill="url(#paint0_linear_109_8)"/>
<path d="M115.264 115L110.272 98.68H85.3119L80.3199 115H64.6719L88.8639 46.168H106.624L130.912 115H115.264ZM101.824 70.552C101.504 69.464 101.088 68.088 100.576 66.424C100.064 64.76 99.5519 63.064 99.0399 61.336C98.5279 59.608 98.1119 58.104 97.7919 56.824C97.4719 58.104 97.0239 59.704 96.4479 61.624C95.9359 63.48 95.4239 65.272 94.9119 67C94.4639 68.664 94.1119 69.848 93.8559 70.552L88.9599 86.488H106.816L101.824 70.552ZM188.288 115H157.088V106.744L165.44 102.904V58.552L157.088 54.712V46.456H188.288V54.712L179.936 58.552V102.904L188.288 106.744V115Z" fill="white"/>
<path d="M197.437 186.276C196.801 174.423 187.018 165 175 165C162.985 165 153.199 174.423 152.563 186.276C144.853 187.665 139 194.394 139 202.5C139 211.611 146.389 219 155.5 219H194.5C203.611 219 211 211.611 211 202.5C211 194.394 205.147 187.665 197.437 186.276V186.276ZM175 207L163 195H172V183H178V195H187L175 207Z" fill="white"/>
<path d="M127 200.328L108.432 218.893C106.279 221.049 103.451 222.125 100.617 222.125C90.8345 222.125 85.8278 210.232 92.8029 203.26L111.035 185.025C112.642 183.425 114.742 182.625 116.849 182.625C121.766 182.625 125.071 186.684 125.071 190.917C125.071 192.925 124.324 194.972 122.655 196.644L106.467 212.833C104.38 214.92 100.986 214.92 98.899 212.833C96.8154 210.749 96.8154 207.355 98.899 205.268L111.97 192.2L114.696 194.926L101.625 207.994C101.039 208.577 101.039 209.528 101.625 210.11C102.21 210.693 103.155 210.693 103.741 210.11L119.933 193.922C121.635 192.22 121.635 189.455 119.933 187.753C118.231 186.052 115.469 186.052 113.764 187.753L95.5317 205.989C92.7206 208.797 92.7206 213.366 95.5317 216.17C98.3362 218.978 102.905 218.978 105.713 216.17L124.278 197.605L127 200.328V200.328ZM71.0417 180.979C71.0417 178.254 68.8297 176.042 66.1042 176.042C63.3787 176.042 61.1667 178.254 61.1667 180.979C61.1667 183.708 63.3787 185.917 66.1042 185.917C68.8297 185.917 71.0417 183.708 71.0417 180.979ZM95.9596 190.897L90.7917 182.625L82.4967 195.792L74.3333 189.34L61.1667 208.958H83.2011C83.6751 205.209 85.2748 201.578 88.1485 198.708L95.9596 190.897V190.897ZM83.6027 215.542H54.5833V169.458H113.833V176.456C114.818 176.252 115.822 176.14 116.849 176.14C118.07 176.14 119.258 176.338 120.417 176.624V162.875H48V222.125H86.9009C85.3143 220.134 84.2083 217.902 83.6027 215.542V215.542Z" fill="white"/>
<defs>
<linearGradient id="paint0_linear_109_8" x1="244" y1="4.00096e-06" x2="-5.49995" y2="256" gradientUnits="userSpaceOnUse">
<stop stop-color="#B94200" stop-opacity="0.96"/>
<stop offset="0.161458" stop-color="#943309" stop-opacity="0.96902"/>
<stop offset="0.53125" stop-color="#150026"/>
<stop offset="1" stop-color="#CA0E0E"/>
</linearGradient>
</defs>
</svg>
